<?xml version="1.0" encoding="UTF-8" standalone="no"?>
<svg
   width="1024"
   height="1024"
   viewBox="0 0 1024 1024"
   version="1.1"
   id="svg20"
   xmlns="http://www.w3.org/2000/svg"
   xmlns:svg="http://www.w3.org/2000/svg">
  <defs
     id="defs1" />
  <!-- === GRID (tianzige visible by default) === -->
  <g
     id="grid-tian"
     style="display:none;opacity:0.6">
    <rect
       x="2"
       y="2"
       width="1020"
       height="1020"
       fill="none"
       stroke="#8a8a8a"
       stroke-width="4"
       id="rect1" />
    <line
       x1="512"
       y1="2"
       x2="512"
       y2="1022"
       stroke="#8a8a8a"
       stroke-width="2"
       id="line1" />
    <line
       x1="2"
       y1="512"
       x2="1022"
       y2="512"
       stroke="#8a8a8a"
       stroke-width="2"
       id="line2" />
    <!-- 4x4 inner guides (light) -->
    <line
       x1="256"
       y1="2"
       x2="256"
       y2="1022"
       stroke="#bdbdbd"
       stroke-width="1"
       opacity="0.5"
       id="line3" />
    <line
       x1="512"
       y1="2"
       x2="512"
       y2="1022"
       stroke="#bdbdbd"
       stroke-width="1"
       opacity="0.5"
       id="line4" />
    <line
       x1="768"
       y1="2"
       x2="768"
       y2="1022"
       stroke="#bdbdbd"
       stroke-width="1"
       opacity="0.5"
       id="line5" />
    <line
       x1="2"
       y1="256"
       x2="1022"
       y2="256"
       stroke="#bdbdbd"
       stroke-width="1"
       opacity="0.5"
       id="line6" />
    <line
       x1="2"
       y1="512"
       x2="1022"
       y2="512"
       stroke="#bdbdbd"
       stroke-width="1"
       opacity="0.5"
       id="line7" />
    <line
       x1="2"
       y1="768"
       x2="1022"
       y2="768"
       stroke="#bdbdbd"
       stroke-width="1"
       opacity="0.5"
       id="line8" />
  </g>
  <!-- Hidden grids to toggle if needed -->
  <!-- Reference layer -->
  <!-- Strokes -->
  <!-- Medians -->
  <!-- Order -->
  <g
     id="layer-strokes"
     style="display:inline">
    <!-- s01: top horizontal -->
    <!-- s02: left vertical -->
    <!-- s03: bottom horizontal -->
    <!-- s04: right vertical -->
    <path
       style="opacity:0.5;fill:#000000;fill-opacity:1"
       d="m 240.05115,231.84863 c 0,0 11.28408,25.64562 19.49068,43.08465 8.20659,17.43902 8.20659,121.04732 2.05164,233.88805 0,0 -5.12912,100.53083 -21.54232,160.02867 -16.41319,59.49783 -15.38737,55.39453 -15.38737,55.39453 0,0 6.15495,22.56815 31.80057,59.49784 25.64562,36.92969 43.08464,-204.13913 47.18794,-290.30841 0,0 -2.05165,-129.25393 1.02583,-226.70728 0,0 1.02582,-5.12913 -32.8264,-42.05882"
       id="s01" />
    <path
       style="opacity:0.5;fill:#000000;fill-opacity:1"
       d="m 304.67812,271.8558 c 364.1678,-53.34289 384.6843,-22.56815 384.6843,-22.56815 8.2066,12.3099 0,48.21377 0,48.21377 24.61979,221.57815 11.28407,404.17496 11.28407,404.17496 -83.09181,15.38738 -76.93686,34.87805 -76.93686,34.87805 61.54949,53.34289 85.14346,104.63413 85.14346,104.63413 54.36871,-24.6198 59.49784,-112.84073 59.49784,-112.84073 -16.4132,-255.43037 -4.1033,-441.10466 -4.1033,-441.10466 24.61979,-56.42036 12.30989,-45.13629 12.30989,-45.13629 -18.46484,-32.82639 -93.35005,-51.29124 -93.35005,-51.29124 -244.1463,54.36871 -402.12332,45.13629 -402.12332,45.13629 z"
       id="path20" />
    <path
       style="opacity:0.5;fill:#000000;fill-opacity:1;stroke:#ff0000;stroke-opacity:1"
       d="m 364.17596,397.00642 c 0,0 1.02582,-8.2066 11.28407,-7.18077 10.25825,1.02582 15.38737,4.1033 186.70011,-29.74892 0,0 34.87805,-13.33572 61.54949,15.38737 0,0 12.3099,9.23242 -34.87804,18.46485 -47.18794,9.23242 -96.42753,17.43902 -183.62264,22.56814 0,0 -13.33572,-4.1033 -41.03299,-19.49067 z"
       id="path23" />
    <path
       style="opacity:0.5;fill:#000000;fill-opacity:1;stroke:#ff0000;stroke-opacity:1"
       d="m 326.22044,551.90596 c 0,0 11.28407,-6.15494 22.56815,-5.12912 0,0 21.54232,10.25825 276.97269,-38.98134 0,0 57.44619,19.49067 51.29124,40.00717 0,0 -12.3099,14.36154 -78.98851,5.12912 0,0 -85.14346,1.02582 -216.44903,30.77474 0,0 -35.90387,-9.23243 -55.39454,-31.80057 z"
       id="path24" />
  </g>
  <g
     id="layer-medians"
     style="display:inline">
    <path
       style="fill:none;stroke:#ff0000;stroke-opacity:1"
       d="m 252.36106,240.05523 25.64562,26.67144 7.18077,34.87805 -3.07747,164.13196 -18.46485,222.60398 -15.38737,36.92969 9.23242,28.7231"
       id="path1" />
    <path
       style="fill:none;stroke:#ff0000;stroke-opacity:1"
       d="m 293.39405,250.31348 23.59397,3.07747 208.24243,-19.49067 154.89954,-16.4132 31.80057,8.2066 33.85222,31.80057 -19.49067,22.56815 9.23242,416.48486 -7.18077,42.05882 -15.38737,55.39454 -46.16212,-55.39454 -25.64562,-8.2066"
       id="path2" />
    <path
       style="fill:none;stroke:#ff0000;stroke-opacity:1"
       d="m 381.61498,397.00642 21.54232,7.18077 170.28692,-28.72309 h 22.56814"
       id="path3" />
    <path
       style="fill:none;stroke:#ff0000;stroke-opacity:1"
       d="m 341.60781,553.95761 29.74892,15.38738 55.39454,-8.2066 193.88089,-27.69727 25.64562,4.1033"
       id="path4" />
  </g>
</svg>
