<?xml version="1.0" encoding="UTF-8" standalone="no"?>
<!-- Created with Inkscape (http://www.inkscape.org/) -->

<svg
   width="1024"
   height="1024"
   viewBox="0 0 270.93333 270.93333"
   version="1.1"
   id="svg1"
   inkscape:version="1.4.2 (ebf0e940, 2025-05-08)"
   sodipodi:docname="丮.svg"
   xmlns:inkscape="http://www.inkscape.org/namespaces/inkscape"
   xmlns:sodipodi="http://sodipodi.sourceforge.net/DTD/sodipodi-0.dtd"
   xmlns="http://www.w3.org/2000/svg"
   xmlns:svg="http://www.w3.org/2000/svg">
  <sodipodi:namedview
     id="namedview1"
     pagecolor="#ffffff"
     bordercolor="#000000"
     borderopacity="0.25"
     inkscape:showpageshadow="2"
     inkscape:pageopacity="0.0"
     inkscape:pagecheckerboard="0"
     inkscape:deskcolor="#d1d1d1"
     inkscape:document-units="mm"
     inkscape:zoom="0.90630016"
     inkscape:cx="435.28625"
     inkscape:cy="439.14811"
     inkscape:window-width="1800"
     inkscape:window-height="1097"
     inkscape:window-x="0"
     inkscape:window-y="44"
     inkscape:window-maximized="1"
     inkscape:current-layer="layer-medians" />
  <defs
     id="defs1" />
  <g
     inkscape:label="Layer 1"
     inkscape:groupmode="layer"
     id="layer1">
    <path
       d="m 230.37244,205.43365 c -3.00188,-5.54194 -5.08011,-14.08576 -6.92742,-38.33173 -0.46183,-6.00376 -3.46371,-5.31102 -4.61828,0.69275 -1.84731,9.23656 -4.15645,16.6258 -6.00376,21.01317 -2.77097,6.46559 -6.23468,6.92742 -15.24033,2.77097 -23.78414,-10.62205 -31.63522,-49.18468 -26.32419,-82.89813 4.84919,-31.173388 7.15833,-38.100808 12.70027,-41.795432 6.46559,-4.387366 6.6965,-7.389248 -2.77097,-12.70027 -12.70027,-7.158334 -15.93307,-7.158334 -24.01506,-2.30914 -5.77285,3.46371 -65.117746,12.238442 -91.90377,12.931184 -11.314786,0.230914 -11.314786,2.078226 -1.616398,8.08199 6.003764,3.46371 10.852958,4.156452 19.165862,1.616398 8.774732,-2.078226 39.717206,-7.620162 72.045166,-11.776614 8.77473,-1.15457 10.85296,0 9.69839,7.158334 -1.84731,7.851076 -3.69462,24.476884 -5.08011,43.87366 -5.08011,57.95941 12.23844,90.98012 56.80485,99.06211 14.31666,2.77096 17.54946,-0.92366 14.08575,-7.38925 z m -125.3863,-61.65404 c 0.23091,-5.77285 0.92365,-19.62769 1.38548,-25.40054 21.01318,-4.61828 25.16963,-5.77285 29.09517,-6.46559 5.31102,-0.69274 4.38736,-5.54194 -1.6164,-7.15834 -6.00377,-1.84731 -12.00753,-1.15457 -26.78603,2.77097 0.69275,-5.77285 0.92366,-8.312902 1.38549,-10.160214 2.30914,-9.005646 1.15457,-11.314786 -12.238444,-15.471238 -8.774732,-2.770968 -12.238442,0 -6.234678,6.92742 2.770968,3.694624 4.156452,9.23656 4.387366,22.167742 -10.160216,1.84731 -21.705916,3.46371 -32.789788,4.61828 -6.003764,0.69274 -6.465592,3.2328 0,5.08011 7.389248,2.07823 18.011292,2.30914 32.789788,0 0,7.15833 -0.230914,17.31855 -0.692742,25.16963 -17.780378,3.00188 -34.406186,4.61828 -49.415596,5.0801 -6.003764,0.23092 -7.158335,3.46371 -1.385484,6.92742 7.158334,4.38737 11.776614,5.31103 19.396776,2.77097 3.925538,-1.38548 14.547582,-3.46371 30.942476,-6.23468 -1.385484,21.93683 -3.001882,37.40807 -4.61828,42.95001 -2.540054,8.54382 -2.078226,13.85484 3.232796,22.39866 2.540054,4.15645 6.465592,4.15645 7.851076,-1.38549 3.463714,-11.31478 4.387364,-23.32231 3.925534,-41.10269 0,-4.15645 0.23092,-13.62393 0.69275,-24.47688 19.8586,-3.46371 31.17339,-5.08011 39.7172,-5.08011 9.92931,-0.23092 9.92931,-4.8492 0,-9.23656 -4.15645,-1.84731 -6.92742,-1.84731 -39.02446,5.31102 z"
       id="text1"
       style="font-size:230.914px;font-family:'Adobe Kaiti Std';-inkscape-font-specification:'Adobe Kaiti Std';opacity:0.449102;stroke-width:1.20267"
       aria-label="丮" />
  </g>
  <g
     inkscape:groupmode="layer"
     id="layer-strokes"
     inkscape:label="strokes">
    <path
       style="opacity:0.449102;fill:#000000;stroke-width:0.264583"
       d="m 58.432112,64.93847 c 0,0 4.129034,0 16.140776,-0.750731 12.01174,-0.750734 50.674532,-4.75465 54.928692,-6.631483 0,0 24.1486,-3.628546 27.5269,-5.880748 0,0 8.25807,-5.755625 15.1398,-2.001956 0,0 13.01272,6.130992 15.26492,9.133927 0,0 2.00196,2.877813 0.50049,4.129036 0,0 -0.25025,1.501468 -5.88075,5.130014 0,0 -3.25318,2.127079 -6.88172,17.266877 0,0 -9.75954,42.791824 -3.75367,66.314814 0,0 6.63148,32.65692 25.52494,39.53865 0,0 7.50734,4.12903 10.51028,2.75269 0,0 4.37928,1.1261 6.88172,-10.38515 0,0 4.12904,-13.51321 5.13002,-20.52006 0,0 2.2522,-3.50342 3.3783,-0.62561 0,0 2.75269,32.78204 5.25514,37.28645 0,0 4.62952,10.1349 3.75367,9.88466 0,0 0,3.00293 -5.50539,3.87879 0,0 -10.51027,1.50147 -29.40374,-6.50636 0,0 -18.89346,-6.00587 -31.40569,-31.90619 0,0 -6.25612,-16.14077 -6.88173,-37.28644 0,0 0.12512,-38.662791 6.25612,-71.194588 0,0 1.00098,-5.255137 -10.13491,-4.379281 l -50.04892,8.007827 c 0,0 17.26688,-2.75269 -0.12512,-0.250244 0,0 -27.151538,5.255136 -27.401783,5.880748 0,0 -4.129036,0.875856 -8.758561,-0.625612 0,0 -8.633438,-3.503424 -12.387107,-8.633438 0,0 0.875855,-1.376349 2.377323,-1.626592 z"
       id="path1"
       inkscape:label="s01" />
    <path
       style="opacity:0.449102;fill:#000000;stroke-width:0.264583"
       d="m 56.930644,118.11545 c 0,0 -0.500489,-1.50147 2.75269,-2.25221 0,0 32.907165,-4.00391 34.408633,-4.87976 0,0 26.400803,-7.50734 29.278613,-7.00685 0,0 9.63442,-1.25122 14.38907,3.00293 0,0 2.2522,2.12708 0,3.62855 0,0 -0.25025,1.00098 -31.53082,7.75758 0,0 -6.381237,1.50147 -25.149582,3.75367 0,0 -16.391021,0.50049 -21.896402,-2.00196 0,0 -2.62757,-1.25121 -2.252202,-2.00195 z"
       id="path2"
       inkscape:label="s02" />
    <path
       style="opacity:0.449102;fill:#000000;stroke-width:0.264583"
       d="m 39.413523,154.9014 c 0,0 -2.001956,-2.12708 2.377324,-3.75367 0,0 25.399826,-0.50048 51.425264,-5.38025 0,0 44.418419,-9.5093 47.171109,-8.63344 0,0 13.13784,4.75464 10.63539,7.75758 0,0 0.75074,2.00196 -4.62952,2.50245 0,0 -10.38515,-0.87586 -42.41646,5.38025 0,0 -15.890533,2.00196 -39.288403,6.63149 0,0 -1.751712,1.62659 -9.884661,2.50244 0,0 -9.634418,-0.25025 -15.390043,-7.00685 z"
       id="path3"
       inkscape:label="s03" />
    <path
       style="opacity:0.449102;fill:#000000;stroke-width:0.264583"
       d="m 86.584628,82.330469 c 0,0 1.626589,-2.377324 8.508317,-1.126099 0,0 16.015655,5.380259 14.138815,9.509295 0,0 0.87586,1.376345 -1.25122,8.258072 0,0 -1.25122,9.509293 -2.00195,24.899333 0,0 -2.7527,45.4194 -2.50245,51.92576 0,0 1.00098,24.39884 -1.37635,30.15447 0,0 -1.25122,12.26199 -4.879766,16.39102 0,0 -3.753668,2.50245 -7.882704,-6.7566 0,0 -4.379281,-9.38418 -0.750734,-19.39396 0,0 3.753669,-8.88368 4.504403,-41.66572 0,0 2.627568,-41.54061 0.250244,-56.805526 0,0 -5.255139,-10.260033 -6.756605,-15.390045 z"
       id="path4"
       inkscape:label="s04" />
  </g>
  <g
     inkscape:groupmode="layer"
     id="layer-medians"
     inkscape:label="medians">
    <path
       style="opacity:0.449102;fill:none;stroke-width:0.264583;stroke:#ff0000;stroke-opacity:1"
       d="m 59.057724,66.940427 10.885639,4.379282 5.004892,-1.251225 57.180885,-7.257092 27.40179,-4.754647 8.63344,-1.251223 9.38417,5.130014 0.62561,2.752691 -4.37928,3.628546 -3.50343,4.879769 -1.25122,13.388086 -4.62953,28.903252 -0.12512,14.0137 0.62562,17.76736 5.25513,23.14762 10.88564,17.64225 14.63931,11.01076 14.51418,4.75465 9.13393,2.12708 0.75074,-12.13686 0.25024,-17.01664 0.25025,-5.38026"
       id="path5"
       inkscape:label="m01" />
    <path
       style="opacity:0.449102;fill:none;stroke:#ff0000;stroke-width:0.264583;stroke-opacity:1"
       d="m 59.433089,117.8652 6.506361,0.87586 11.886617,0.12512 12.01174,-1.75171 33.032283,-8.00783 7.13197,-1.62659 3.25318,0.62561"
       id="path6"
       inkscape:label="m02" />
    <path
       style="opacity:0.449102;fill:none;stroke:#ff0000;stroke-width:0.264583;stroke-opacity:1"
       d="m 42.916948,154.27579 8.508315,3.62855 5.630502,-2.00196 20.269814,-3.25318 30.279591,-4.62952 21.02055,-3.75367 9.50929,-1.62659 7.2571,1.25122 1.75171,0.37537"
       id="path7"
       inkscape:label="m03" />
    <path
       style="opacity:0.449102;fill:none;stroke:#ff0000;stroke-width:0.264583;stroke-opacity:1"
       d="m 89.962931,84.332428 12.762469,7.006847 -2.62757,7.13197 -0.875851,39.288405 -1.751711,37.91205 -2.377323,22.39689 -3.253179,8.25807 3.253179,9.63442"
       id="path8"
       inkscape:label="m04" />
  </g>
</svg>
