<?xml version="1.0" encoding="UTF-8" standalone="no"?>
<!-- Created with Inkscape (http://www.inkscape.org/) -->

<svg
   width="1024"
   height="1024"
   viewBox="0 0 270.93333 270.93333"
   version="1.1"
   id="svg1"
   inkscape:version="1.4.2 (ebf0e940, 2025-05-08)"
   sodipodi:docname="亯.svg"
   xmlns:inkscape="http://www.inkscape.org/namespaces/inkscape"
   xmlns:sodipodi="http://sodipodi.sourceforge.net/DTD/sodipodi-0.dtd"
   xmlns="http://www.w3.org/2000/svg"
   xmlns:svg="http://www.w3.org/2000/svg">
  <sodipodi:namedview
     id="namedview1"
     pagecolor="#ffffff"
     bordercolor="#000000"
     borderopacity="0.25"
     inkscape:showpageshadow="2"
     inkscape:pageopacity="0.0"
     inkscape:pagecheckerboard="0"
     inkscape:deskcolor="#d1d1d1"
     inkscape:document-units="mm"
     inkscape:zoom="0.67788215"
     inkscape:cx="385.76027"
     inkscape:cy="426.32779"
     inkscape:window-width="1800"
     inkscape:window-height="1097"
     inkscape:window-x="0"
     inkscape:window-y="44"
     inkscape:window-maximized="0"
     inkscape:current-layer="layer1" />
  <defs
     id="defs1" />
  <g
     inkscape:label="Layer 1"
     inkscape:groupmode="layer"
     id="layer1">
    <text
       xml:space="preserve"
       style="font-size:240.66px;font-family:'Adobe Kaiti Std';-inkscape-font-specification:'Adobe Kaiti Std';text-align:start;writing-mode:lr-tb;direction:ltr;text-anchor:start;opacity:0.449102;fill:none;stroke:#ff0000;stroke-width:1.25344"
       x="15.978971"
       y="223.54826"
       id="text1"><tspan
         sodipodi:role="line"
         id="tspan1"
         style="fill:#000000;fill-opacity:1;stroke:none;stroke-width:1.25344"
         x="15.978971"
         y="223.54826">亯</tspan></text>
  </g>
  <g
     inkscape:groupmode="layer"
     id="layer2"
     inkscape:label="strokes">
    <path
       style="opacity:0.449102;fill:#000000;fill-opacity:1;stroke:none;stroke-width:0.264583"
       d="m 116.47707,31.273559 c 0,0 2.61419,-1.839621 8.13306,-0.580932 0,0 14.52332,0.8714 20.71994,6.487085 0,0 3.77607,3.776065 4.45382,8.520351 0,0 0.77458,5.131575 -0.67775,8.03624 0,0 0.0968,2.130087 -6.39027,2.033265 0,0 -5.7125,-1.549154 -12.19959,-7.939417 0,0 -15.58836,-12.39324 -14.03921,-16.556592 z"
       id="path1"
       inkscape:label="s01" />
    <path
       style="opacity:0.449102;fill:#000000;fill-opacity:1;stroke:none;stroke-width:0.264583"
       d="m 45.700063,79.103708 c 0,0 -2.226911,-0.968221 1.258686,-2.517375 0,0 23.043678,-1.258687 30.692629,-1.549153 0,0 38.922512,-4.066531 39.987552,-4.356998 0,0 49.20669,-6.405591 62.37871,-9.576633 0,0 24.63656,-5.00049 31.22257,-2.3173 0,0 11.95239,4.146747 12.9281,9.757053 0,0 2.43926,2.195337 -6.70798,4.512638 0,0 -10.00098,0.609815 -17.80662,-0.731779 0,0 -13.29398,-0.853743 -34.51558,1.341594 0,0 -8.17153,0.487853 -51.22453,5.610306 0,0 -19.026253,3.293006 -42.443182,7.317791 0,0 -9.391164,2.3173 -16.221101,-0.731779 0,0 -7.512006,-3.393786 -9.549254,-6.758365 z"
       id="path2"
       inkscape:label="s02" />
    <path
       style="opacity:0.449102;fill:#000000;fill-opacity:1;stroke:none;stroke-width:0.264583"
       d="m 90.202302,98.711953 c 0,0 -4.53848,2.647447 -1.323724,7.375037 0,0 7.942343,10.96799 8.509653,17.2084 0,0 4.160269,10.58979 4.727589,15.12827 0,0 5.29489,8.50965 6.61861,-2.64745 0,0 1.89104,-6.0513 -1.89103,-28.74371 0,0 -4.53848,-6.42951 -10.022479,-8.131442 0,0 -5.862207,-0.567313 -6.618619,-0.189105 z"
       id="path3"
       inkscape:label="s03" />
    <path
       style="opacity:0.449102;fill:#000000;fill-opacity:1;stroke:none;stroke-width:0.264583"
       d="m 100.22478,100.22478 c 0,0 15.12827,1.70193 48.03225,-6.996825 0,0 11.1571,-4.916685 13.99365,-3.214755 0,0 20.80137,5.673101 19.85586,12.10262 0,0 1.70193,1.51282 -6.99683,6.0513 0,0 -6.24041,5.6731 -7.56413,12.48082 0,0 -1.51283,5.67311 -5.6731,4.72759 0,0 -6.99683,2.08014 -10.968,-1.70193 0,0 4.34938,-9.07696 4.53848,-13.04813 0,0 3.59297,-8.50965 -0.94551,-8.69876 0,0 -21.93599,1.51283 -47.84315,5.484 0,0 -6.42952,0.56731 -6.05131,-2.26924 0,0 -1.891038,-2.83655 -0.37821,-4.91669 z"
       id="path4"
       inkscape:label="s04" />
    <path
       style="opacity:0.449102;fill:#000000;fill-opacity:1;stroke:none;stroke-width:0.264583"
       d="m 107.59981,128.77939 c 0,0 39.3335,-3.97117 41.60274,-7.37503 0,0 3.40386,-0.94552 5.484,-4.91669 0,0 13.04813,2.08014 15.31737,8.32055 0,0 3.40386,3.78207 -5.29489,6.42951 0,0 -21.93599,0.75642 -49.92329,4.16028 0,0 -8.69875,2.45834 -10.40068,-1.32373 0,0 0.18909,-5.6731 3.21475,-5.29489 z"
       id="path5"
       inkscape:label="s05" />
    <path
       style="opacity:0.449102;fill:#000000;fill-opacity:1;stroke:none;stroke-width:0.264583"
       d="m 60.380699,158.40132 c 0,0 -0.156831,4.39132 5.959655,10.82147 0,0 4.861823,6.58699 8.312149,26.50478 0,0 2.822994,12.54664 4.234491,26.50478 0,0 1.411497,9.56681 8.468981,13.17397 0,0 4.077658,2.50933 3.763992,-6.27332 0,0 0.940998,-1.56833 -4.548157,-33.87593 0,0 -1.411497,-13.95813 -5.018655,-29.9551 0,0 -4.391324,-7.68482 -13.487637,-8.78265 0,0 -7.684821,0.15684 -7.684819,1.882 z"
       id="path7"
       inkscape:label="s06" />
    <path
       style="opacity:0.449102;fill:#000000;fill-opacity:1;stroke:none;stroke-width:0.264583"
       d="m 60.380699,157.46032 c 0,0 6.430153,-1.25466 15.212801,0.941 0,0 14.899135,-0.15683 47.9909,-5.17549 0,0 38.73774,-5.01865 45.01106,-7.52798 0,0 8.93948,-1.4115 11.13515,-2.66616 0,0 6.90065,-2.03883 13.01713,2.03883 0,0 20.23146,11.60564 19.29046,14.7423 0,0 2.3525,2.50932 -3.76399,8.46898 0,0 -5.80282,6.58698 -8.62581,21.32928 0,0 -6.27332,27.75944 -10.19415,31.68027 0,0 -3.92082,11.44881 -13.01714,17.72213 0,0 -2.50932,1.25466 -4.86182,-8.78265 0,0 -2.50933,-10.66464 -5.95965,-11.60564 0,0 0.941,-7.52799 4.23449,-7.99848 0,0 6.74382,3.29349 7.84165,-1.882 0,0 8.46898,-21.79979 8.62581,-42.34491 0,0 2.66616,-7.99848 -11.44881,-11.60564 0,0 -32.77809,3.45033 -42.50174,4.86182 0,0 -49.245555,6.43016 -50.813885,7.05749 0,0 -7.84165,3.29349 -11.135143,1.09783 0,0 -7.527987,-3.2935 -10.037313,-10.35098 z"
       id="path6"
       inkscape:label="s07" />
    <path
       style="opacity:0.449102;fill:#000000;fill-opacity:1;stroke:none;stroke-width:0.264583"
       d="m 82.964651,186.78809 c 0,0 0.313666,2.03883 20.545119,-1.4115 0,0 22.11345,-4.07765 43.28591,-7.68481 0,0 11.60564,-1.72517 17.09479,2.82299 0,0 5.01866,3.92083 -0.31366,5.01866 0,0 1.09783,2.03883 -16.46747,3.29349 0,0 -13.8013,2.03883 -29.0141,3.45033 0,0 -18.819958,1.88199 -29.641434,1.56833 0,0 -9.566813,-0.78417 -5.489155,-7.05749 z"
       id="path8"
       inkscape:label="s08" />
    <path
       style="opacity:0.449102;fill:#000000;fill-opacity:1;stroke:none;stroke-width:0.264583"
       d="m 87.983305,214.07703 c 0,0 22.897615,-2.03883 63.203695,-6.74382 0,0 15.6833,0.15684 19.13363,3.60716 0,0 3.76399,13.01714 -1.56833,11.76248 0,0 2.19566,-5.80283 -19.76096,-5.01866 0,0 -36.85575,1.09783 -60.380701,5.17549 0,0 -5.802825,-5.01866 -0.627334,-8.78265 z"
       id="path9"
       inkscape:label="s09" />
  </g>
  <g
     inkscape:groupmode="layer"
     id="layer3"
     inkscape:label="medians">
    <path
       style="opacity:0.449102;fill:none;fill-opacity:1;stroke:#ff0000;stroke-width:0.264583;stroke-opacity:1"
       d="m 122.39797,34.970847 15.29974,4.768752 3.97396,3.775262 1.19219,5.563545"
       id="path10"
       inkscape:label="m01" />
    <path
       style="opacity:0.449102;fill:none;fill-opacity:1;stroke:#ff0000;stroke-width:0.264583;stroke-opacity:1"
       d="m 52.058876,79.479197 10.332294,2.980471 20.267197,-2.583075 44.707043,-5.762241 58.01982,-7.947919 18.87631,-1.986981 10.53099,3.17917"
       id="path11"
       inkscape:label="m02" />
    <path
       style="opacity:0.449102;fill:none;fill-opacity:1;stroke:#ff0000;stroke-width:0.264583;stroke-opacity:1"
       d="m 92.593267,104.31645 6.95443,4.76875 1.986983,6.75573 1.78828,9.53751 1.58958,10.92839"
       id="path12"
       inkscape:label="m03" />
    <path
       style="opacity:0.449102;fill:none;fill-opacity:1;stroke:#ff0000;stroke-width:0.264583;stroke-opacity:1"
       d="m 101.93207,102.92556 5.96094,0.99349 20.2672,-2.38437 25.43334,-3.576568 6.15964,-1.986981 13.90886,5.364849 -8.94141,2.98047 -1.98698,6.15964 -4.57006,11.72318"
       id="path13"
       inkscape:label="m04" />
    <path
       style="opacity:0.449102;fill:none;fill-opacity:1;stroke:#ff0000;stroke-width:0.264583;stroke-opacity:1"
       d="m 106.30343,132.13417 10.92839,0.39739 22.05548,-3.77526 15.69714,-3.17917 6.35833,0.5961"
       id="path14"
       inkscape:label="m05" />
    <path
       style="opacity:0.449102;fill:none;fill-opacity:1;stroke:#ff0000;stroke-width:0.264583;stroke-opacity:1"
       d="m 64.775547,162.33626 10.332294,1.98698 -0.993489,5.36485 5.364845,19.2737 3.17917,16.49194 1.390885,15.89584 1.788282,6.95443"
       id="path15"
       inkscape:label="m06" />
    <path
       style="opacity:0.449102;fill:none;fill-opacity:1;stroke:#ff0000;stroke-width:0.264583;stroke-opacity:1"
       d="m 69.941696,164.52194 13.71016,-1.78828 69.345604,-8.74271 29.0099,-3.97396 12.51798,7.55052 6.75573,4.17266 -4.96745,4.57005 -2.98047,12.71667 -4.96745,21.65809 -8.14662,20.06849 -3.57656,8.94141 -2.38438,-9.14011"
       id="path16"
       inkscape:label="m07" />
    <path
       style="opacity:0.449102;fill:none;fill-opacity:1;stroke:#ff0000;stroke-width:0.264583;stroke-opacity:1"
       d="m 83.651856,189.35919 9.338808,1.39089 23.446356,-2.58308 25.83075,-3.97396 9.7362,-1.78828 7.94792,0.79479"
       id="path17"
       inkscape:label="m08" />
    <path
       style="opacity:0.449102;fill:none;fill-opacity:1;stroke:#ff0000;stroke-width:0.264583;stroke-opacity:1"
       d="m 88.221911,218.5678 17.485419,-1.98698 24.04246,-1.58959 17.28673,-1.58958 12.71667,-0.99349 12.31927,2.98047"
       id="path18"
       inkscape:label="m09" />
  </g>
</svg>
