<?xml version="1.0" encoding="UTF-8" standalone="no"?>
<!-- Created with Inkscape (http://www.inkscape.org/) -->

<svg
   width="1024"
   height="1024"
   viewBox="0 0 1024 1024"
   version="1.1"
   id="svg1"
   sodipodi:docname="兂.svg"
   inkscape:version="1.4.2 (ebf0e940, 2025-05-08)"
   inkscape:export-filename="兂.svg"
   inkscape:export-xdpi="96"
   inkscape:export-ydpi="96"
   xmlns:inkscape="http://www.inkscape.org/namespaces/inkscape"
   xmlns:sodipodi="http://sodipodi.sourceforge.net/DTD/sodipodi-0.dtd"
   xmlns="http://www.w3.org/2000/svg"
   xmlns:svg="http://www.w3.org/2000/svg">
  <sodipodi:namedview
     id="namedview1"
     pagecolor="#ffffff"
     bordercolor="#000000"
     borderopacity="0.25"
     inkscape:showpageshadow="2"
     inkscape:pageopacity="0.0"
     inkscape:pagecheckerboard="0"
     inkscape:deskcolor="#d1d1d1"
     inkscape:document-units="mm"
     inkscape:zoom="0.4193244"
     inkscape:cx="907.41203"
     inkscape:cy="386.33574"
     inkscape:window-width="1800"
     inkscape:window-height="1097"
     inkscape:window-x="0"
     inkscape:window-y="44"
     inkscape:window-maximized="1"
     inkscape:current-layer="svg1">
    <inkscape:page
       x="0"
       y="0"
       width="1024"
       height="1024"
       id="page2"
       margin="0"
       bleed="0" />
  </sodipodi:namedview>
  <defs
     id="defs1" />
  <g
     id="layer-strokes">
    <path
       style="opacity:0.5;fill:#000000;fill-opacity:1;stroke:none"
       d="m 357.56371,378.9398 c 0,0 -3.88656,10.20223 3.40074,13.60297 7.28731,3.40074 9.71641,12.14551 107.36628,3.40074 0,0 133.11475,-13.11715 182.1826,-30.60668 0,0 5.34402,0.97164 2.4291,-11.65968 0,0 -8.25895,-9.23059 -39.83726,-15.54625 0,0 -159.34905,36.43652 -255.54146,40.8089 z"
       id="path1"
       inkscape:label="s01" />
    <path
       style="opacity:0.5;fill:#000000;fill-opacity:1;stroke:none"
       d="m 318.21227,411.97558 c 0,0 -2.4291,5.34402 1.45746,18.94699 3.88656,13.60297 0.48582,38.86562 0.48582,38.86562 0,0 -5.82984,40.32308 -26.72011,41.29472 0,0 -9.23059,3.88656 -9.23059,17.97535 0,0 10.20223,23.31937 18.94699,25.26265 0,0 0.48582,7.28731 31.57832,-9.7164 0,0 15.06043,-8.74476 110.2812,-28.17758 0,0 141.37369,-20.40445 196.7572,-20.40445 0,0 56.84097,2.91493 64.6141,-10.68804 0,0 5.82984,1.94328 -4.85821,-14.57461 0,0 -13.60296,-16.03207 -56.84097,-17.00371 0,0 -86.96182,28.17758 -304.12348,48.09621 0,0 16.51789,-37.40816 18.46117,-63.64246 0,0 -1.45746,-7.2873 -24.77683,-24.29101 0,0 -7.2873,-2.91492 -16.03207,-1.94328 z"
       id="path2"
       inkscape:label="s02" />
    <path
       style="opacity:0.5;fill:#000000;fill-opacity:1;stroke:none"
       d="m 457.15686,256.99892 c 0,0 15.54625,19.91863 15.54625,34.49324 0,0 14.08879,62.18499 -12.63133,169.55127 0,0 -23.31937,116.11104 -55.86932,155.46248 0,0 -34.49324,61.21335 -110.2812,117.5685 0,0 -48.09621,33.5216 -44.69547,38.86562 3.40074,5.34402 23.8052,-4.8582 23.8052,-4.8582 0,0 65.58573,-31.0925 105.90881,-68.98648 0,0 55.38351,-41.29472 93.76331,-155.46248 0,0 37.40816,-111.73866 45.66711,-237.08029 0,0 -0.97164,6.80149 13.60296,-21.86191 0,0 0.48582,-11.65968 -27.20593,-25.74847 0,0 -28.17758,-11.65969 -39.83726,-11.17387 -11.65969,0.48582 -7.77313,9.23059 -7.77313,9.23059 z"
       id="path3"
       inkscape:label="s03" />
    <path
       style="opacity:0.5;fill:#000000;fill-opacity:1;stroke:none"
       d="m 504.28143,521.77096 c 0,0 0.48582,10.68804 5.34402,20.40445 4.8582,9.7164 -3.88656,127.28491 -3.88656,127.28491 0,0 -4.8582,88.41928 79.1887,99.59315 0,0 128.25655,22.83355 186.55498,-28.17758 0,0 4.37238,-7.2873 1.94328,-17.0037 0,0 -8.74476,-15.06043 -9.23058,-32.06414 0,0 -5.82985,-32.06414 -6.31567,-70.44394 0,0 -2.4291,-7.2873 -13.11714,-0.48582 0,0 -12.14551,65.09992 -19.91863,73.35886 0,0 -5.82985,28.66339 -57.81262,34.00742 0,0 -42.75218,11.65968 -102.99389,-11.17387 0,0 -16.51789,-8.74476 -22.83355,-33.5216 0,0 -6.31567,-28.66339 5.34402,-102.02225 0,0 8.74477,-31.57832 4.8582,-42.75218 0,0 2.91492,-6.31567 -25.26265,-17.00371 0,0 -19.91863,-2.91492 -21.86191,0 z"
       id="path4"
       inkscape:label="s04" />
  </g>
  <g
     id="layer-medians">
    <path
       style="opacity:0.5;fill:none;fill-opacity:1;stroke:#ff0000;stroke-width:1.00367;stroke-opacity:1"
       d="m 364.07177,386.13828 27.30444,6.82608 120.59457,-11.37683 101.25394,-21.61602 20.47831,1.13769"
       id="path5"
       inkscape:label="m01" />
    <path
       style="opacity:0.5;fill:none;fill-opacity:1;stroke:#ff0000;stroke-width:1.00367;stroke-opacity:1"
       d="m 321.97743,424.81954 15.92758,12.51454 v 14.7899 l -14.78989,53.47118 -15.92758,19.34063 5.68841,11.37686 26.16675,-13.65221 303.76182,-40.95666 h 31.85518 l 13.65221,1.13769"
       id="path6"
       inkscape:label="m02" />
    <path
       style="opacity:0.5;fill:none;fill-opacity:1;stroke:#ff0000;stroke-width:1.00367;stroke-opacity:1"
       d="m 473.2895,262.13064 27.30444,25.02906 -5.68843,36.40591 -7.96378,106.94236 -37.54361,136.52216 -43.23203,77.36256 -34.13053,40.95667 -48.92044,42.09431 -48.92044,35.26824"
       id="path7"
       inkscape:label="m03" />
    <path
       style="opacity:0.5;fill:none;fill-opacity:1;stroke:#ff0000;stroke-width:1.00367;stroke-opacity:1"
       d="m 514.24615,530.62423 17.06527,13.65222 4.55074,18.20296 -7.9638,37.54357 -4.55074,42.09435 -1.13768,43.23203 13.65222,37.54358 17.06528,18.20295 36.40588,12.51453 65.98573,5.68843 54.60887,-7.96379 43.23199,-19.34064 -9.10145,-19.34065 4.55076,-31.85516 3.41303,-42.09434"
       id="path8"
       inkscape:label="m04" />
  </g>
</svg>
