<?xml version="1.0" encoding="UTF-8" standalone="no"?>
<!-- Created with Inkscape (http://www.inkscape.org/) -->

<svg
   width="1024"
   height="1024"
   viewBox="0 0 270.93333 270.93333"
   version="1.1"
   id="svg1"
   inkscape:version="1.4.2 (ebf0e940, 2025-05-08)"
   sodipodi:docname="皀.svg"
   xmlns:inkscape="http://www.inkscape.org/namespaces/inkscape"
   xmlns:sodipodi="http://sodipodi.sourceforge.net/DTD/sodipodi-0.dtd"
   xmlns="http://www.w3.org/2000/svg"
   xmlns:svg="http://www.w3.org/2000/svg">
  <sodipodi:namedview
     id="namedview1"
     pagecolor="#ffffff"
     bordercolor="#000000"
     borderopacity="0.25"
     inkscape:showpageshadow="2"
     inkscape:pageopacity="0.0"
     inkscape:pagecheckerboard="0"
     inkscape:deskcolor="#d1d1d1"
     inkscape:document-units="mm"
     inkscape:zoom="0.72957354"
     inkscape:cx="214.50888"
     inkscape:cy="478.36165"
     inkscape:window-width="1800"
     inkscape:window-height="1097"
     inkscape:window-x="0"
     inkscape:window-y="44"
     inkscape:window-maximized="1"
     inkscape:current-layer="layer1" />
  <defs
     id="defs1" />
  <g
     inkscape:label="Layer 1"
     inkscape:groupmode="layer"
     id="layer1">
    <text
       xml:space="preserve"
       style="font-size:283.855px;font-family:'Adobe Kaiti Std';-inkscape-font-specification:'Adobe Kaiti Std';text-align:start;writing-mode:lr-tb;direction:ltr;text-anchor:start;opacity:0.449102;fill:#000000;stroke-width:1.47841"
       x="-21.079462"
       y="247.73111"
       id="text1"><tspan
         sodipodi:role="line"
         id="tspan1"
         style="stroke-width:1.47841"
         x="-21.079462"
         y="247.73111">皀</tspan></text>
  </g>
  <g
     inkscape:groupmode="layer"
     id="layer-medians"
     inkscape:label="medians">
    <path
       style="opacity:0.449102;fill:none;stroke-width:0.264583;stroke:#ff0000;stroke-opacity:1"
       d="m 113.8736,23.209906 5.07717,4.351856 -4.35186,4.714512 -14.14354,18.13274 -15.231497,17.770083 -6.527787,6.165133"
       id="path8"
       inkscape:label="m01" />
    <path
       style="opacity:0.449102;fill:none;stroke:#ff0000;stroke-width:0.264583;stroke-opacity:1"
       d="m 47.87043,79.78405 7.978407,3.263895 5.802476,16.682119 7.253094,19.220706 5.802477,25.74849"
       id="path9"
       inkscape:label="m02" />
    <path
       style="opacity:0.449102;fill:none;stroke:#ff0000;stroke-width:0.264583;stroke-opacity:1"
       d="m 64.552551,80.146707 12.692917,-0.362657 30.825652,-3.989202 45.33185,-8.341058 15.59416,-2.538585 11.24229,9.066369 -5.43982,4.351858 -9.42902,28.649728 -10.15434,33.36424"
       id="path10"
       inkscape:label="m03" />
    <path
       style="opacity:0.449102;fill:none;stroke:#ff0000;stroke-width:0.264583;stroke-opacity:1"
       d="m 75.069538,110.60971 13.780883,2.53858 13.780879,-3.62655 19.58336,-3.62655 10.87964,-1.08796"
       id="path11"
       inkscape:label="m04" />
    <path
       style="opacity:0.449102;fill:none;stroke:#ff0000;stroke-width:0.264583;stroke-opacity:1"
       d="m 80.50936,143.24864 22.12194,-3.62655 27.92442,-2.53859 h 14.86885"
       id="path12"
       inkscape:label="m05" />
    <path
       style="opacity:0.449102;fill:none;stroke:#ff0000;stroke-width:0.264583;stroke-opacity:1"
       d="m 170.08509,159.93076 4.71451,4.71451 -5.07716,3.62655 -51.49698,19.94601 -25.023183,7.2531 -21.033978,6.89044"
       id="path13"
       inkscape:label="m06" />
    <path
       style="opacity:0.449102;fill:none;stroke:#ff0000;stroke-width:0.264583;stroke-opacity:1"
       d="m 59.838039,160.65607 6.89044,6.89044 -1.813274,5.80247 0.362654,21.03398 2.901238,25.38584 4.714513,11.24229 6.165133,5.80248 14.506191,5.43982 27.199106,4.35186 38.44141,-0.72531 42.43061,-4.35186 18.85805,-9.79168 -4.35186,-3.26389 4.71451,-35.54017"
       id="path14"
       inkscape:label="m07" />
  </g>
  <g
     inkscape:groupmode="layer"
     id="layer-strokes"
     inkscape:label="strokes">
    <path
       style="opacity:0.449102;fill:#000000;stroke-width:0.264583"
       d="m 109.60731,15.790884 c 0,0 -7.12138,-1.238501 -5.57325,6.502129 0,0 2.06417,0.516042 -1.34171,11.249715 0,0 -9.908004,22.293013 -29.724016,42.625066 0,0 4.231544,3.302669 11.352923,-1.548126 0,0 35.813313,-33.749144 44.998863,-38.49673 0,0 8.35988,-3.405877 6.50213,-6.811754 0,0 -2.78664,-6.502129 -26.21494,-13.5203 z"
       id="path1"
       inkscape:label="s01" />
    <path
       style="opacity:0.449102;fill:#000000;stroke-width:0.264583"
       d="m 44.017493,75.263072 c 0,0 -7.184202,1.938595 0.798245,9.008761 0,0 7.184203,7.184204 12.885951,22.578927 0,0 6.271923,14.14033 9.464902,27.14032 0,0 3.078944,14.48244 8.096482,16.99121 0,0 5.929818,2.05263 5.587713,-3.53509 0,0 -2.622804,-22.57892 -8.210517,-43.90346 0,0 -5.131573,-23.947339 -7.868412,-24.517513 0,0 -3e-6,-3.307016 -20.754364,-3.763155 z"
       id="path2"
       inkscape:label="s02" />
    <path
       style="opacity:0.449102;fill:#000000;stroke-width:0.264583"
       d="m 61.806946,77.201667 c 0,0 20.640328,-0.456139 77.657804,-13.912266 0,0 15.05262,-3.192978 22.92103,-7.640341 0,0 3.07895,-2.280699 12.77192,2.394734 0,0 23.26313,11.517531 20.75436,18.359629 0,0 2.85087,0.22807 -6.8421,8.324552 0,0 -6.15789,4.447363 -19.72805,44.587665 0,0 -6.04385,15.50876 -12.42981,16.64911 0,0 -4.44736,1.14035 -8.21051,-3.07895 0,0 -3.07895,-2.6228 2.6228,-16.53507 0,0 9.57894,-26.912246 10.94736,-42.991175 0,0 2.39473,-8.210517 -0.68421,-10.491216 0,0 -2.85088,-1.482455 -15.73683,0.114035 0,0 -37.5175,6.842097 -75.149035,10.947356 0,0 -6.385958,1.026315 -7.526308,-0.68421 0,0 -3.307017,-1.59649 -1.368421,-6.043853 z"
       id="path3"
       inkscape:label="s03" />
    <path
       style="opacity:0.449102;fill:#000000;stroke-width:0.264583"
       d="m 71.956059,109.35952 c 0,0 9.122796,0.57018 39.570131,-7.86841 0,0 11.63157,-5.017535 23.4912,-2.394731 0,0 7.52631,2.850871 3.53509,5.929821 0,0 1.02631,2.50877 -15.73683,5.81578 0,0 -18.70173,4.10526 -24.517515,4.5614 0,0 -12.201741,1.25438 -19.043838,0 0,0 -10.605252,-2.28071 -7.298238,-6.04386 z"
       id="path4"
       inkscape:label="s04" />
    <path
       style="opacity:0.449102;fill:#000000;stroke-width:0.264583"
       d="m 78.570086,139.23668 c 0,0 38.885924,-6.61402 45.956084,-6.61402 0,0 22.23682,-2.50877 24.97366,-1.59649 0,0 4.5614,2.16666 2.62281,4.5614 0,0 -1.36842,7.86841 -3.19298,7.41227 0,0 1.02631,-1.82456 -14.48244,-1.9386 0,0 -20.8684,1.14035 -53.938539,6.5 0,0 -4.219295,-3.64913 -1.938595,-8.32456 z"
       id="path5"
       inkscape:label="s05" />
    <path
       style="opacity:0.449102;fill:#000000;stroke-width:0.264583"
       d="m 73.048465,198.25587 c 0,0 27.895945,-9.47165 36.199855,-13.36411 0,0 35.81062,-13.23435 45.67152,-21.01927 0,0 9.47165,-6.61718 8.95265,-8.95265 0,0 3.50321,-3.63296 10.63939,0.51899 0,0 16.86732,6.87668 16.21857,10.50964 0,0 2.46523,2.20573 -4.67095,5.31969 0,0 -7.91466,1.29749 -8.17416,2.20573 0,0 -5.0602,1.42723 -21.40852,8.43366 0,0 -20.75978,7.39567 -25.94972,8.69315 0,0 -31.139667,9.08241 -32.956147,9.08241 0,0 -25.560476,6.22793 -28.674443,7.13617 0,0 -1.297487,-6.09819 4.151955,-8.56341 z"
       id="path6"
       inkscape:label="s06" />
    <path
       style="opacity:0.449102;fill:#000000;stroke-width:0.264583"
       d="m 54.753911,157.25531 c 0,0 -1.297484,2.72472 2.205726,8.17416 0,0 4.151957,-0.12974 2.594974,27.50671 0,0 0.90824,38.01634 8.044413,42.29805 0,0 4.800699,12.71536 33.475146,17.25656 0,0 27.5067,7.91466 90.95377,-0.90824 0,0 27.7662,-3.63296 31.91816,-12.06662 0,0 6.87667,-2.46522 5.18994,-15.56983 0,0 -6.35768,-22.18702 -5.31969,-34.64288 0,0 -0.519,-5.83869 -2.72472,-5.44944 0,0 -2.07598,0.38924 -3.89246,11.02863 0,0 -0.64874,5.18994 -10.37989,25.17123 0,0 -2.98422,7.52542 -21.27877,11.67737 0,0 -18.03506,3.50322 -54.10517,5.96844 0,0 -29.97193,0.12975 -44.76327,-4.93045 0,0 -14.791342,-1.42723 -13.10461,-38.79483 0,0 2.205727,-19.59204 4.411453,-21.01928 0,0 2.335475,-6.22793 -2.724721,-9.73114 0,0 -16.218578,-9.73115 -20.500281,-5.96844 z"
       id="path7"
       inkscape:label="s07" />
  </g>
</svg>
