<?xml version="1.0" encoding="UTF-8" standalone="no"?>
<!-- Created with Inkscape (http://www.inkscape.org/) -->

<svg
   width="1024"
   height="1024"
   viewBox="0 0 270.93333 270.93333"
   version="1.1"
   id="svg1"
   inkscape:version="1.4.2 (ebf0e940, 2025-05-08)"
   sodipodi:docname="竝.svg"
   xmlns:inkscape="http://www.inkscape.org/namespaces/inkscape"
   xmlns:sodipodi="http://sodipodi.sourceforge.net/DTD/sodipodi-0.dtd"
   xmlns="http://www.w3.org/2000/svg"
   xmlns:svg="http://www.w3.org/2000/svg">
  <sodipodi:namedview
     id="namedview1"
     pagecolor="#ffffff"
     bordercolor="#000000"
     borderopacity="0.25"
     inkscape:showpageshadow="2"
     inkscape:pageopacity="0.0"
     inkscape:pagecheckerboard="0"
     inkscape:deskcolor="#d1d1d1"
     inkscape:document-units="mm"
     inkscape:zoom="0.89564255"
     inkscape:cx="484.56831"
     inkscape:cy="575.00618"
     inkscape:window-width="1800"
     inkscape:window-height="1097"
     inkscape:window-x="0"
     inkscape:window-y="44"
     inkscape:window-maximized="0"
     inkscape:current-layer="layer1" />
  <defs
     id="defs1" />
  <g
     inkscape:label="Layer 1"
     inkscape:groupmode="layer"
     id="layer1">
    <text
       xml:space="preserve"
       style="font-size:253.773px;font-family:'Adobe Kaiti Std';-inkscape-font-specification:'Adobe Kaiti Std';text-align:start;writing-mode:lr-tb;direction:ltr;text-anchor:start;opacity:0.449102;fill:#000000;fill-opacity:1;stroke:none;stroke-width:1.32173"
       x="8.0726595"
       y="237.86421"
       id="text1"><tspan
         sodipodi:role="line"
         id="tspan1"
         style="fill:#000000;fill-opacity:1;stroke:none;stroke-width:1.32173"
         x="8.0726595"
         y="237.86421">竝</tspan></text>
  </g>
  <g
     inkscape:groupmode="layer"
     id="layer3"
     inkscape:label="strokes">
    <path
       style="opacity:0.449102;fill:#000000;fill-opacity:1;stroke:none;stroke-width:0.264583"
       d="m 65.762618,56.794987 c 0,0 -2.540828,-4.035433 3.437591,-3.587052 0,0 21.671772,4.035435 25.109364,11.80738 0,0 5.081656,5.530039 1.195684,16.141734 0,0 -2.690289,5.828959 -9.266551,2.540828 0,0 -14.348208,-17.636341 -20.476088,-26.90289 z"
       id="path1"
       inkscape:label="s01" />
    <path
       style="opacity:0.449102;fill:#000000;fill-opacity:1;stroke:none;stroke-width:0.264583"
       d="m 41.013686,122.91715 c 0,0 -6.567146,-2.23035 0.371727,-4.95633 0,0 14.992919,-1.11518 51.669811,-14.12556 0,0 14.373376,-5.69979 20.197076,-3.22162 0,0 11.15175,1.85862 6.56714,6.19542 0,0 4.46071,0.12391 -16.232,7.3106 0,0 -25.772951,8.42577 -40.146328,10.28439 0,0 -12.143028,4.08898 -22.427426,-1.4869 z"
       id="path2"
       inkscape:label="s02" />
    <path
       style="opacity:0.449102;fill:#000000;fill-opacity:1;stroke:none;stroke-width:0.264583"
       d="m 51.421995,146.08803 c 0,0 -1.486903,-7.55842 3.96507,-3.09771 0,0 12.266933,7.55841 14.125559,18.21454 0,0 2.602077,10.4083 -4.336794,13.50601 0,0 -4.832429,1.98254 -11.151758,-17.84281 0,0 -2.35426,-8.54968 -2.602077,-10.78003 z"
       id="path3"
       inkscape:label="s03" />
    <path
       style="opacity:0.449102;fill:#000000;fill-opacity:1;stroke:none;stroke-width:0.264583"
       d="m 89.833605,131.34292 c 0,0 2.602076,4.70852 1.734717,9.29314 0,0 1.239086,5.08024 -7.062779,35.56171 0,0 -2.106443,9.16923 -2.973802,10.2844 0,0 1.858626,7.3106 6.443238,4.70852 0,0 -1.239084,-1.73471 5.204154,-16.85154 0,0 11.151757,-28.49894 12.886477,-29.61411 0,0 5.20415,-7.18669 2.47817,-9.41704 0,0 -4.3368,-6.07152 -17.966724,-8.42578 0,0 -1.61081,1.23907 -0.743451,4.4607 z"
       id="path4"
       inkscape:label="s04" />
    <path
       style="opacity:0.449102;fill:#000000;fill-opacity:1;stroke:none;stroke-width:0.264583"
       d="m 28.746754,210.27259 c 0,0 -12.266934,-9.78877 -2.602077,-11.89521 0,0 10.656124,0.74345 15.364644,-0.61954 0,0 6.691055,-0.37172 27.383761,-6.93887 0,0 21.18834,-6.56715 24.905593,-7.3106 0,0 24.781685,-7.06278 28.622845,-7.4345 0,0 6.69105,0.99126 0.37173,4.21288 0,0 -3.34553,2.47817 -40.889784,17.22327 0,0 -34.446541,14.37338 -35.809533,16.23201 0,0 -5.575879,4.58461 -12.019117,0.61954 0,0 -3.221619,-1.98254 -5.328062,-4.08898 z"
       id="path5"
       inkscape:label="s05" />
    <path
       style="opacity:0.449102;fill:#000000;fill-opacity:1;stroke:none;stroke-width:0.264583"
       d="m 152.48451,46.525256 c 0,0 -3.31683,1.613593 0.89644,5.378643 0,0 17.3013,16.225571 26.62428,20.438841 0,0 6.90259,2.958253 8.24725,-3.137541 0,0 2.33075,-2.778965 -0.44822,-10.667641 0,0 -1.34466,-6.006151 -14.79126,-9.32298 0,0 -15.14985,-3.137543 -20.52849,-2.689322 z"
       id="path6"
       inkscape:label="s06" />
    <path
       style="opacity:0.449102;fill:#000000;fill-opacity:1;stroke:none;stroke-width:0.264583"
       d="m 130.16315,114.38579 c 0,0 -4.75114,-1.4343 -2.59968,-3.40647 0,0 8.78511,-1.79288 10.12978,-1.52395 0,0 18.37702,-3.6754 44.82202,-11.653723 0,0 13.89482,-5.468286 21.51456,-4.930422 0,0 7.79904,0.268932 14.4327,3.047898 0,0 6.90259,2.689321 -1.25502,6.723307 0,0 -2.2411,2.42038 -20.88706,6.09579 0,0 -28.59645,7.35081 -49.12494,9.05405 0,0 -7.53009,1.43429 -17.03236,-3.40648 z"
       id="path7"
       inkscape:label="s07" />
    <path
       style="opacity:0.449102;fill:#000000;fill-opacity:1;stroke:none;stroke-width:0.264583"
       d="m 132.76282,149.25732 c 0,0 2.68932,16.58415 11.11586,29.94111 0,0 6.45437,7.17153 8.42654,0.98609 0,0 4.12363,-7.79903 1.16538,-16.22557 0,0 -3.31683,-7.26117 -13.6259,-13.71554 0,0 -6.18544,-3.85471 -7.08188,-0.98609 z"
       id="path8"
       inkscape:label="s08" />
    <path
       style="opacity:0.449102;fill:#000000;fill-opacity:1;stroke:none;stroke-width:0.264583"
       d="m 186.36996,136.1693 c 0,0 -2.86861,-8.69548 0.0896,-9.59192 0,0 2.24114,-1.97216 14.07416,6.45438 0,0 9.7712,6.09579 7.70938,10.3987 0,0 1.43431,2.2411 -5.37864,7.61975 0,0 -18.82525,32.80972 -27.25179,54.32429 0,0 -3.6754,5.10971 -6.7233,3.40647 0,0 -3.13754,-1.25502 -1.70324,-2.86861 0,0 11.47444,-25.01069 16.6738,-50.46959 0,0 3.76505,-16.31521 2.51003,-19.27347 z"
       id="path9"
       inkscape:label="s09" />
    <path
       style="opacity:0.449102;fill:#000000;fill-opacity:1;stroke:none;stroke-width:0.264583"
       d="m 101.20812,221.86899 c 0,0 -7.171524,-4.03398 -5.468287,-7.44045 0.448222,-0.26893 6.095797,-2.06181 10.488357,-1.79288 0,0 21.33528,-1.25501 29.67217,-2.59967 0,0 28.50681,-2.86861 30.38933,-3.58577 0,0 18.01846,-1.79288 40.6984,-6.27508 0,0 12.63981,-3.31683 21.42492,-0.71715 0,0 10.66764,1.52395 17.12202,10.04013 0,0 3.6754,4.03398 -5.46829,5.37864 0,0 -8.06796,0.98609 -17.92881,-0.53786 0,0 -10.12978,-1.25502 -28.32752,-0.8068 0,0 -17.57023,-0.26893 -47.86991,4.21327 0,0 -6.63366,0.62751 -17.48059,3.49612 0,0 -8.24725,2.33075 -18.64596,3.0479 0,0 -4.57185,0.53784 -8.60583,-2.4204 z"
       id="path10"
       inkscape:label="s10" />
  </g>
  <g
     inkscape:groupmode="layer"
     id="layer4"
     inkscape:label="medians">
    <path
       style="opacity:0.449102;fill:none;fill-opacity:1;stroke:#ff0000;stroke-width:0.264583;stroke-opacity:1"
       d="m 70.603408,57.014466 16.543057,9.453177 v 7.680705 l 1.47706,4.431176"
       id="path11"
       inkscape:label="m01" />
    <path
       style="opacity:0.449102;fill:none;fill-opacity:1;stroke:#ff0000;stroke-width:0.264583;stroke-opacity:1"
       d="m 43.720937,120.52799 12.407294,2.06788 31.609059,-9.74858 18.61094,-6.49906 7.38529,-0.59083"
       id="path12"
       inkscape:label="m02" />
    <path
       style="opacity:0.449102;fill:none;fill-opacity:1;stroke:#ff0000;stroke-width:0.264583;stroke-opacity:1"
       d="m 53.764939,147.11505 9.453176,14.17976 0.590822,7.68071"
       id="path13"
       inkscape:label="m03" />
    <path
       style="opacity:0.449102;fill:none;fill-opacity:1;stroke:#ff0000;stroke-width:0.264583;stroke-opacity:1"
       d="m 92.759288,130.8674 9.453172,6.20365 -4.726584,5.61282 -7.089881,28.65494 -5.612823,15.066"
       id="path14"
       inkscape:label="m04" />
    <path
       style="opacity:0.449102;fill:none;fill-opacity:1;stroke:#ff0000;stroke-width:0.264583;stroke-opacity:1"
       d="m 24.519175,202.06164 12.407294,8.56694 9.157764,-5.022 28.359528,-10.63483 22.746705,-7.97611 18.315524,-6.20365"
       id="path15"
       inkscape:label="m05" />
    <path
       style="opacity:0.449102;fill:none;fill-opacity:1;stroke:#ff0000;stroke-width:0.264583;stroke-opacity:1"
       d="m 157.74987,50.515408 20.088,10.339411 3.84036,7.385294"
       id="path16"
       inkscape:label="m06" />
    <path
       style="opacity:0.449102;fill:none;fill-opacity:1;stroke:#ff0000;stroke-width:0.264583;stroke-opacity:1"
       d="m 134.11693,112.84729 18.61094,-0.59083 31.90447,-9.15776 19.49718,-2.95412 7.97611,-0.886234"
       id="path17"
       inkscape:label="m07" />
    <path
       style="opacity:0.449102;fill:none;fill-opacity:1;stroke:#ff0000;stroke-width:0.264583;stroke-opacity:1"
       d="m 136.48023,153.90952 9.74858,12.40729 0.29542,9.74859"
       id="path18"
       inkscape:label="m08" />
    <path
       style="opacity:0.449102;fill:none;fill-opacity:1;stroke:#ff0000;stroke-width:0.264583;stroke-opacity:1"
       d="m 190.83599,131.45823 9.45318,10.33941 -10.04401,14.17976 -17.7247,46.67506"
       id="path19"
       inkscape:label="m09" />
    <path
       style="opacity:0.449102;fill:none;fill-opacity:1;stroke:#ff0000;stroke-width:0.264583;stroke-opacity:1"
       d="m 101.91705,216.83222 11.22565,2.06789 44.31176,-7.3853 52.58329,-5.022 h 16.83847 l 11.81647,3.24953"
       id="path20"
       inkscape:label="m10" />
  </g>
</svg>
