<?xml version="1.0" encoding="UTF-8" standalone="no"?>
<!-- Created with Inkscape (http://www.inkscape.org/) -->

<svg
   width="1024"
   height="1024"
   viewBox="0 0 270.93333 270.93333"
   version="1.1"
   id="svg1"
   inkscape:version="1.4.2 (ebf0e940, 2025-05-08)"
   sodipodi:docname="чнн.svg"
   xmlns:inkscape="http://www.inkscape.org/namespaces/inkscape"
   xmlns:sodipodi="http://sodipodi.sourceforge.net/DTD/sodipodi-0.dtd"
   xmlns="http://www.w3.org/2000/svg"
   xmlns:svg="http://www.w3.org/2000/svg">
  <sodipodi:namedview
     id="namedview1"
     pagecolor="#ffffff"
     bordercolor="#000000"
     borderopacity="0.25"
     inkscape:showpageshadow="2"
     inkscape:pageopacity="0.0"
     inkscape:pagecheckerboard="0"
     inkscape:deskcolor="#d1d1d1"
     inkscape:document-units="mm"
     inkscape:zoom="2.7847145"
     inkscape:cx="531.47279"
     inkscape:cy="481.19833"
     inkscape:window-width="1800"
     inkscape:window-height="1097"
     inkscape:window-x="0"
     inkscape:window-y="44"
     inkscape:window-maximized="0"
     inkscape:current-layer="layer2"
     showguides="false" />
  <defs
     id="defs1" />
  <text
     xml:space="preserve"
     style="font-size:229.902px;font-family:'Adobe Kaiti Std';-inkscape-font-specification:'Adobe Kaiti Std';text-align:start;writing-mode:lr-tb;direction:ltr;text-anchor:start;opacity:0.449102;fill:#000000;fill-opacity:1;stroke:none;stroke-width:1.19741"
     x="18.331705"
     y="218.34641"
     id="text1"><tspan
       sodipodi:role="line"
       id="tspan1"
       style="fill:#000000;fill-opacity:1;stroke:none;stroke-width:1.19741"
       x="18.331705"
       y="218.34641">чнн</tspan></text>
  <g
     inkscape:label="strokes"
     inkscape:groupmode="layer"
     id="layer1">
    <path
       style="opacity:0.449102;fill:#000000;fill-opacity:1;stroke:none;stroke-width:0.264583"
       d="m 91.567734,47.991474 c 0,0 -1.343763,18.044795 -30.522579,45.495918 0,0 -5.758976,4.031286 -5.758976,7.198718 0,0 0.767864,2.59154 10.942057,-3.551364 0,0 16.317101,-9.11838 28.027021,-27.067192 0,0 10.558123,-13.437613 12.189833,-14.493426 0,0 4.41522,-2.399573 3.45539,-5.950943 0,0 -1.72769,-4.799147 -15.357274,-9.310346 0,0 -5.758978,-1.055815 -2.975472,7.678635 z"
       id="path1"
       inkscape:label="s01" />
    <path
       style="opacity:0.449102;fill:#000000;fill-opacity:1;stroke:none;stroke-width:0.264583"
       d="m 94.35124,69.779605 c 1.919659,1.63171 11.23001,2.303591 11.23001,2.303591 19.38855,0.767863 25.05155,-2.303591 25.05155,-2.303591 6.91077,-2.879489 6.23889,-4.22325 6.23889,-4.22325 1.72769,-3.647352 -7.58266,-5.375045 -7.58266,-5.375045 -1.15179,-0.95983 -9.11838,1.535727 -9.11838,1.535727 -3.26342,2.783506 -22.555991,4.031283 -22.555991,4.031283 -0.863846,-0.575898 -5.56701,0.479914 -5.56701,0.479914 0,0 0.767864,3.071456 2.303591,3.551371 z"
       id="path2"
       inkscape:label="s02" />
    <path
       style="opacity:0.449102;fill:#000000;fill-opacity:1;stroke:none;stroke-width:0.264583"
       d="m 93.487392,78.322087 c 0,0 -0.767863,-2.399575 2.303592,-2.015643 0,0 8.734446,1.727695 11.613936,4.319234 0,0 6.04693,1.343762 3.74334,11.134023 0,0 -1.1518,4.991113 -7.10274,2.591539 0,0 -6.718812,-6.334876 -10.558128,-16.029153 z"
       id="path3"
       inkscape:label="s03" />
    <path
       style="opacity:0.449102;fill:#000000;fill-opacity:1;stroke:none;stroke-width:0.264583"
       d="m 164.41879,35.513692 c 0,0 -6.52684,-2.495558 -4.60718,6.238891 0,0 1.43975,8.254534 -8.73445,22.364028 0,0 -7.19872,11.325988 -18.81265,23.323857 0,0 -4.79915,4.607181 -2.87949,6.334875 0,0 2.49555,0.863846 9.21436,-4.799148 0,0 13.91753,-9.598295 26.01138,-25.723431 0,0 8.25453,-10.942056 12.86172,-14.877357 0,0 2.49555,-1.727693 1.15179,-4.89513 0,0 -3.07146,-3.743335 -14.20548,-7.966585 z"
       id="path4"
       inkscape:label="s04" />
    <path
       style="opacity:0.449102;fill:#000000;fill-opacity:1;stroke:none;stroke-width:0.264583"
       d="m 163.07503,58.645583 c 0,0 -0.5759,-0.767866 4.79915,0.287949 0,0 11.13402,1.247778 24.85958,-3.935301 0,0 8.15856,-2.495557 14.58941,-0.191966 0,0 7.39069,2.111625 3.45539,4.89513 0,0 1.72769,3.359403 -18.90864,5.662994 0,0 -9.21437,2.015642 -20.2524,0.09598 0,0 -15.93318,-3.743331 -8.54249,-6.814786 z"
       id="path5"
       inkscape:label="s05" />
    <path
       style="opacity:0.449102;fill:#000000;fill-opacity:1;stroke:none;stroke-width:0.264583"
       d="m 164.32281,76.306444 c 0,0 -2.30359,-3.64735 3.83932,-2.879487 0,0 15.93317,1.63171 16.893,5.087096 0,0 4.89513,6.622824 1.91966,9.022398 0,0 -0.38393,4.511198 -7.48667,1.343761 0,0 -12.57377,-8.158554 -15.16531,-12.573768 z"
       id="path6"
       inkscape:label="s06" />
    <path
       style="opacity:0.449102;fill:#000000;fill-opacity:1;stroke:none;stroke-width:0.264583"
       d="m 92.719529,104.81338 c 0,0 -3.071455,-1.91966 1.247778,-3.3594 0,0 37.241383,-2.399575 56.725923,-7.486672 0,0 17.4689,-3.935301 23.22788,-1.343761 0,0 10.07821,2.399574 6.04692,4.895131 0,0 0.47992,2.015642 -10.17419,2.687522 0,0 -31.00249,4.12727 -48.08746,5.85496 0,0 -25.915398,2.59154 -28.986851,-1.24778 z"
       id="path7"
       inkscape:label="s07" />
    <path
       style="opacity:0.449102;fill:#000000;fill-opacity:1;stroke:none;stroke-width:0.264583"
       d="m 101.45398,125.06578 c 0,0 -4.127269,-1.72769 0.67188,-4.70316 0,0 22.36403,-1.82368 25.3395,-2.78351 0,0 12.47778,-0.47991 25.72343,-4.31923 0,0 10.46214,-1.53573 15.16531,3.26342 0,0 2.39957,2.49556 -7.58266,4.12727 0,0 -10.17419,2.30359 -22.46001,3.3594 0,0 -33.97796,4.03128 -36.85745,1.05581 z"
       id="path8"
       inkscape:label="s08" />
    <path
       style="opacity:0.449102;fill:#000000;fill-opacity:1;stroke:none;stroke-width:0.264583"
       d="m 127.7533,104.33346 c 0,0 0.38394,31.96233 -0.86384,34.07395 0,0 11.13402,-0.76786 11.32599,-3.3594 0,0 0.67188,-33.786 1.34376,-35.03378 0,0 -13.0537,2.39956 -11.80591,4.31923 z"
       id="path9"
       inkscape:label="s09" />
    <path
       style="opacity:0.449102;fill:#000000;fill-opacity:1;stroke:none;stroke-width:0.264583"
       d="m 82.449354,145.2222 c 0,0 -7.678637,-3.45539 -1.24778,-4.99111 0,0 18.716677,-0.19197 21.116256,-1.05581 0,0 24.09172,-2.49556 24.85958,-2.78351 0,0 24.09172,-2.7835 29.37078,-4.22325 0,0 17.66086,-2.68752 20.92429,-1.34376 0,0 16.79701,5.56701 8.92641,8.35052 0,0 -2.01564,1.91966 -16.70103,1.63171 0,0 -5.56701,-0.28795 -27.64309,1.43974 0,0 -14.68539,1.1518 -29.56275,3.83932 0,0 -16.029155,3.45539 -20.828302,2.20761 0,0 -6.526842,-1.24779 -9.214364,-3.07146 z"
       id="path10"
       inkscape:label="s10" />
    <path
       style="opacity:0.449102;fill:#000000;fill-opacity:1;stroke:none;stroke-width:0.264583"
       d="m 103.55193,157.74617 c 0,0 -4.464515,-6.32473 0.12401,-7.06881 0,0 16.98996,1.98423 15.12975,6.82078 0,0 1.98423,-0.8681 -1.36416,6.44875 0,0 -1.86022,14.38565 -4.21649,21.82651 0,0 -3.59641,14.38566 -14.261639,23.93476 0,0 -12.277415,11.16128 -27.035115,15.37777 0,0 -8.184943,3.84444 -9.921143,0.99211 0,0 -0.744085,-0.99211 5.828672,-4.71254 0,0 16.369886,-9.42508 25.050886,-20.09031 0,0 15.749819,-17.61004 10.665229,-43.52902 z"
       id="path11"
       inkscape:label="s11" />
    <path
       style="opacity:0.449102;fill:#000000;fill-opacity:1;stroke:none;stroke-width:0.264583"
       d="m 150.80137,143.73256 c 0,0 -3.84444,-0.37205 2.85233,10.04515 0,0 2.48029,4.83656 0.74409,43.90106 0,0 -0.49606,35.96415 3.72043,36.83225 0,0 2.48028,5.33261 6.82078,-11.53333 0,0 1.61219,-3.96846 0.8681,-37.57633 0,0 0.62007,-23.31469 1.48817,-27.28314 0,0 4.09247,-6.9448 -1.86021,-10.54122 0,0 -13.76559,-4.83655 -14.63369,-3.84444 z"
       id="path12"
       inkscape:label="s12" />
    <path
       style="opacity:0.449102;fill:#000000;fill-opacity:1;stroke:none;stroke-width:0.264583"
       d="m 43.529014,175.72824 c 0,0 -9.425085,-4.09247 -1.48817,-6.44874 0,0 11.409313,1.48817 23.314685,-0.49606 0,0 35.716111,-2.10824 38.568441,-3.4724 0,0 22.19856,-0.49605 50.3498,-4.58852 0,0 40.05662,-4.46452 45.76127,-6.20072 0,0 15.50179,-1.24014 19.9663,2.10824 0,0 9.05305,3.22438 9.79713,8.30896 0,0 1.61219,4.46452 -15.50178,2.48029 0,0 -9.79713,-1.7362 -22.81863,-0.8681 0,0 -46.75339,1.98423 -50.84586,3.10035 0,0 -23.31468,0.62008 -59.278828,5.58065 0,0 -11.161286,1.11613 -16.4939,2.72831 0,0 -16.369887,4.58852 -21.330458,-2.23226 z"
       id="path13"
       inkscape:label="s13" />
  </g>
  <g
     inkscape:groupmode="layer"
     id="layer2"
     inkscape:label="medians">
    <path
       style="opacity:0.449102;fill:none;fill-opacity:1;stroke:#ff0000;stroke-width:0.264583;stroke-opacity:1"
       d="m 93.679424,43.450568 9.993636,6.256882 c 0,0 -5.996184,6.604487 -6.343788,6.865189 -0.347604,0.260704 -11.123345,15.468404 -11.123345,15.468404 L 72.910053,85.945225 56.833343,99.849407"
       id="path14"
       inkscape:label="m01" />
    <path
       style="opacity:0.449102;fill:none;fill-opacity:1;stroke:#ff0000;stroke-width:0.264583;stroke-opacity:1"
       d="m 94.696318,67.646552 7.393312,1.283867 13.67983,-0.796883 8.54436,-2.966178 4.42713,-0.973968 5.711,0.619797"
       id="path27"
       inkscape:label="m02" />
    <path
       style="opacity:0.449102;fill:none;fill-opacity:1;stroke:#ff0000;stroke-width:0.264583;stroke-opacity:1"
       d="m 95.67815,78.732429 10.08053,6.083081 0.52141,6.430684"
       id="path16"
       inkscape:label="m03" />
    <path
       style="opacity:0.449102;fill:none;fill-opacity:1;stroke:#ff0000;stroke-width:0.264583;stroke-opacity:1"
       d="m 163.37414,39.626918 9.12462,5.387872 -8.25561,6.952091 -9.47223,15.468401 -12.16615,13.904182 -9.73293,9.211519"
       id="path17"
       inkscape:label="m04" />
    <path
       style="opacity:0.449102;fill:none;fill-opacity:1;stroke:#ff0000;stroke-width:0.264583;stroke-opacity:1"
       d="m 163.28723,60.570093 6.9521,1.390418 10.51503,1.216615 13.81728,-3.736748 9.12462,-1.911826 4.86647,1.129715"
       id="path18"
       inkscape:label="m05" />
    <path
       style="opacity:0.449102;fill:none;fill-opacity:1;stroke:#ff0000;stroke-width:0.264583;stroke-opacity:1"
       d="m 167.28469,76.733703 14.33869,4.084355 0.86901,5.214067"
       id="path19"
       inkscape:label="m06" />
    <path
       style="opacity:0.449102;fill:none;fill-opacity:1;stroke:#ff0000;stroke-width:0.264583;stroke-opacity:1"
       d="m 94.461535,103.75996 13.730385,0.0869 19.11824,-2.52014 21.46459,-2.346326 15.2077,-3.215341 11.21024,1.042812"
       id="path20"
       inkscape:label="m07" />
    <path
       style="opacity:0.449102;fill:none;fill-opacity:1;stroke:#ff0000;stroke-width:0.264583;stroke-opacity:1"
       d="m 102.45644,122.87821 14.94699,0.0869 20.42177,-2.86774 17.46713,-2.17253 8.34251,-0.86901"
       id="path21"
       inkscape:label="m08" />
    <path
       style="opacity:0.449102;fill:none;fill-opacity:1;stroke:#ff0000;stroke-width:0.264583;stroke-opacity:1"
       d="m 133.30634,102.63024 0.34761,11.38405 0.2607,13.20897 -1.65112,12.07926"
       id="path22"
       inkscape:label="m09" />
    <path
       style="opacity:0.449102;fill:none;fill-opacity:1;stroke:#ff0000;stroke-width:0.264583;stroke-opacity:1"
       d="m 82.281024,142.32907 10.641425,2.85038 24.513281,-3.80051 25.65344,-2.66036 26.98362,-2.2803 6.17582,-0.85511 7.98107,1.80524"
       id="path28"
       inkscape:label="m10" />
    <path
       style="opacity:0.449102;fill:none;fill-opacity:1;stroke:#ff0000;stroke-width:0.264583;stroke-opacity:1"
       d="m 105.41108,154.33642 9.55912,3.38914 -4.08435,5.38787 -1.65112,14.947 -3.12844,12.77447 -7.038994,12.68756 -9.124619,8.34251 -11.731654,6.95209 -13.122071,6.60449"
       id="path24"
       inkscape:label="m11" />
    <path
       style="opacity:0.449102;fill:none;fill-opacity:1;stroke:#ff0000;stroke-width:0.264583;stroke-opacity:1"
       d="m 152.85246,146.91458 10.15186,5.1717 -4.02244,0.95772 1.53236,19.53754 -0.57464,40.41587 -0.76617,16.08974"
       id="path25"
       inkscape:label="m12" />
    <path
       style="opacity:0.449102;fill:none;fill-opacity:1;stroke:#ff0000;stroke-width:0.264583;stroke-opacity:1"
       d="m 42.905955,171.24073 6.704054,4.21397 21.452978,-2.68162 28.92321,-3.06471 24.709233,-2.49008 18.19672,-0.95772 7.85332,-1.53235 26.05005,-2.29854 19.72907,-1.34081 11.49267,-2.10699 16.28128,5.1717"
       id="path26"
       inkscape:label="m13" />
  </g>
</svg>
