<?xml version="1.0" encoding="UTF-8" standalone="no"?>
<!-- Created with Inkscape (http://www.inkscape.org/) -->

<svg
   width="1024"
   height="1024"
   viewBox="0 0 270.93333 270.93333"
   version="1.1"
   id="svg1"
   inkscape:version="1.4.2 (ebf0e940, 2025-05-08)"
   sodipodi:docname="чнн.svg"
   xmlns:inkscape="http://www.inkscape.org/namespaces/inkscape"
   xmlns:sodipodi="http://sodipodi.sourceforge.net/DTD/sodipodi-0.dtd"
   xmlns="http://www.w3.org/2000/svg"
   xmlns:svg="http://www.w3.org/2000/svg">
  <sodipodi:namedview
     id="namedview1"
     pagecolor="#ffffff"
     bordercolor="#000000"
     borderopacity="0.25"
     inkscape:showpageshadow="2"
     inkscape:pageopacity="0.0"
     inkscape:pagecheckerboard="0"
     inkscape:deskcolor="#d1d1d1"
     inkscape:document-units="mm"
     inkscape:zoom="0.71910116"
     inkscape:cx="390.76561"
     inkscape:cy="444.99998"
     inkscape:window-width="1800"
     inkscape:window-height="1097"
     inkscape:window-x="0"
     inkscape:window-y="44"
     inkscape:window-maximized="0"
     inkscape:current-layer="layer2"
     showguides="false" />
  <defs
     id="defs1" />
  <text
     xml:space="preserve"
     style="font-size:269.487px;font-family:'Adobe Kaiti Std';-inkscape-font-specification:'Adobe Kaiti Std';text-align:start;writing-mode:lr-tb;direction:ltr;text-anchor:start;opacity:0.449102;fill:#000000;fill-opacity:1;stroke:none;stroke-width:1.40359"
     x="-2.2072568"
     y="233.90475"
     id="text1"><tspan
       sodipodi:role="line"
       id="tspan1"
       style="fill:#000000;fill-opacity:1;stroke:none;stroke-width:1.40359"
       x="-2.2072568"
       y="233.90475">чнн</tspan></text>
  <g
     inkscape:label="strokes"
     inkscape:groupmode="layer"
     id="layer1">
    <path
       style="opacity:0.449102;fill:#000000;fill-opacity:1;stroke:none;stroke-width:0.31014"
       d="m 83.638854,34.217411 c 0,0 -1.575138,21.151822 -35.778083,53.329591 0,0 -6.75058,4.72541 -6.75058,8.438224 0,0 0.900078,3.037764 12.826105,-4.162853 0,0 19.126647,-10.68842 32.85283,-31.727732 0,0 12.376055,-15.751356 14.288734,-16.988963 0,0 5.17544,-2.812742 4.05035,-6.975601 0,0 -2.02518,-5.625485 -18.001558,-10.91344 0,0 -6.750581,-1.23761 -3.487798,9.000774 z"
       id="path1"
       inkscape:label="s01" />
    <path
       style="opacity:0.449102;fill:#000000;fill-opacity:1;stroke:none;stroke-width:0.31014"
       d="m 86.901632,59.757112 c 2.250197,1.912665 13.163648,2.700232 13.163648,2.700232 22.72695,0.900077 29.36502,-2.700232 29.36502,-2.700232 8.1007,-3.375292 7.31313,-4.950427 7.31313,-4.950427 2.02517,-4.275368 -8.88827,-6.300542 -8.88827,-6.300542 -1.35011,-1.125098 -10.68842,1.800154 -10.68842,1.800154 -3.82533,3.262782 -26.439779,4.725407 -26.439779,4.725407 -1.01259,-0.675059 -6.525559,0.562547 -6.525559,0.562547 0,0 0.900074,3.600312 2.70023,4.162861 z"
       id="path2"
       inkscape:label="s02" />
    <path
       style="opacity:0.449102;fill:#000000;fill-opacity:1;stroke:none;stroke-width:0.31014"
       d="m 85.889044,69.770473 c 0,0 -0.900073,-2.812743 2.700238,-2.362704 0,0 10.238379,2.025176 13.613668,5.062937 0,0 7.08812,1.575136 4.38789,13.051125 0,0 -1.35013,5.850503 -8.325729,3.037761 0,0 -7.87568,-7.425642 -12.376067,-18.789119 z"
       id="path3"
       inkscape:label="s03" />
    <path
       style="opacity:0.449102;fill:#000000;fill-opacity:1;stroke:none;stroke-width:0.31014"
       d="m 169.03371,19.591152 c 0,0 -7.65067,-2.925253 -5.40047,7.31313 0,0 1.68765,9.675833 -10.23839,26.214758 0,0 -8.43822,13.276143 -22.05188,27.339854 0,0 -5.62549,5.400465 -3.37529,7.425641 0,0 2.92523,1.012586 10.80092,-5.625485 0,0 16.3139,-11.250969 30.49013,-30.152597 0,0 9.67583,-12.826104 15.07631,-17.439002 0,0 2.92524,-2.025174 1.3501,-5.737994 0,0 -3.60031,-4.387877 -16.65143,-9.338305 z"
       id="path4"
       inkscape:label="s04" />
    <path
       style="opacity:0.449102;fill:#000000;fill-opacity:1;stroke:none;stroke-width:0.31014"
       d="m 167.45857,46.705988 c 0,0 -0.67506,-0.90008 5.62549,0.337529 0,0 13.05112,1.462626 29.14,-4.612897 0,0 9.56333,-2.925253 17.10148,-0.225019 0,0 8.66324,2.475213 4.05035,5.737993 0,0 2.02517,3.937839 -22.16441,6.638072 0,0 -10.80094,2.362703 -23.73954,0.112506 0,0 -18.67662,-4.387873 -10.01337,-7.988184 z"
       id="path5"
       inkscape:label="s05" />
    <path
       style="opacity:0.449102;fill:#000000;fill-opacity:1;stroke:none;stroke-width:0.31014"
       d="m 168.92119,67.407769 c 0,0 -2.70023,-4.275366 4.5004,-3.375289 0,0 18.67661,1.912664 19.8017,5.963013 0,0 5.73799,7.763169 2.2502,10.575912 0,0 -0.45004,5.287954 -8.77576,1.575135 0,0 -14.73877,-9.563327 -17.77654,-14.738771 z"
       id="path6"
       inkscape:label="s06" />
    <path
       style="opacity:0.449102;fill:#000000;fill-opacity:1;stroke:none;stroke-width:0.31014"
       d="m 84.988971,100.82315 c 0,0 -3.600312,-2.250199 1.462619,-3.937839 0,0 43.65377,-2.812744 66.49323,-8.775758 0,0 20.47677,-4.612897 27.22735,-1.575136 0,0 11.81352,2.812743 7.08811,5.737995 0,0 0.56255,2.362704 -11.92603,3.150271 0,0 -36.34062,4.837917 -56.36735,6.863097 0,0 -30.377618,3.03776 -33.977929,-1.46263 z"
       id="path7"
       inkscape:label="s07" />
    <path
       style="opacity:0.449102;fill:#000000;fill-opacity:1;stroke:none;stroke-width:0.31014"
       d="m 95.227361,124.56269 c 0,0 -4.83792,-2.02517 0.78757,-5.51296 0,0 26.214749,-2.13769 29.702549,-3.2628 0,0 14.62625,-0.56254 30.15259,-5.06293 0,0 12.26356,-1.80015 17.77654,3.82533 0,0 2.81274,2.92526 -8.88828,4.83792 0,0 -11.92601,2.70023 -26.32726,3.93784 0,0 -39.828419,4.7254 -43.203709,1.2376 z"
       id="path8"
       inkscape:label="s08" />
    <path
       style="opacity:0.449102;fill:#000000;fill-opacity:1;stroke:none;stroke-width:0.31014"
       d="m 126.05499,100.26059 c 0,0 0.45006,37.46575 -1.01257,39.94095 0,0 13.05112,-0.90008 13.27615,-3.93783 0,0 0.78756,-39.603423 1.57513,-41.066052 0,0 -15.30134,2.812727 -13.83871,5.062932 z"
       id="path9"
       inkscape:label="s09" />
    <path
       style="opacity:0.449102;fill:#000000;fill-opacity:1;stroke:none;stroke-width:0.31014"
       d="m 72.950433,148.18972 c 0,0 -9.000776,-4.05035 -1.462627,-5.8505 0,0 21.939385,-0.22502 24.752145,-1.23759 0,0 28.239929,-2.92526 29.139999,-3.26279 0,0 28.23994,-3.26277 34.42796,-4.95042 0,0 20.70178,-3.15027 24.52713,-1.57514 0,0 19.68918,6.52556 10.46338,9.78835 0,0 -2.3627,2.25019 -19.57668,1.91266 0,0 -6.52556,-0.33753 -32.40279,1.68764 0,0 -17.21398,1.35012 -34.65298,4.50039 0,0 -18.789119,4.05035 -24.414606,2.58772 0,0 -7.65066,-1.46264 -10.800931,-3.60032 z"
       id="path10"
       inkscape:label="s10" />
    <path
       style="opacity:0.449102;fill:#000000;fill-opacity:1;stroke:none;stroke-width:0.31014"
       d="m 97.686531,162.87013 c 0,0 -5.23323,-7.41376 0.14537,-8.28595 0,0 19.915359,2.32588 17.734859,7.99521 0,0 2.32588,-1.01758 -1.59905,7.55912 0,0 -2.18052,16.86263 -4.9425,25.58469 0,0 -4.21566,16.86265 -16.717269,28.05595 0,0 -14.391395,13.08307 -31.690136,18.02557 0,0 -9.594261,4.50639 -11.629406,1.16293 0,0 -0.872205,-1.16293 6.832276,-5.52396 0,0 19.18852,-11.04792 29.364253,-23.54954 0,0 18.461682,-20.64221 12.501603,-51.02402 z"
       id="path11"
       inkscape:label="s11" />
    <path
       style="opacity:0.449102;fill:#000000;fill-opacity:1;stroke:none;stroke-width:0.31014"
       d="m 153.07158,146.44359 c 0,0 -4.50639,-0.43611 3.34345,11.77477 0,0 2.90737,5.66933 0.87222,51.46012 0,0 -0.58148,42.1566 4.36103,43.17418 0,0 2.90734,6.25081 7.9952,-13.51918 0,0 1.88979,-4.65177 1.01758,-44.04638 0,0 0.72683,-27.32911 1.74441,-31.98086 0,0 4.79713,-8.14059 -2.18051,-12.35626 0,0 -16.13581,-5.66932 -17.15338,-4.50639 z"
       id="path12"
       inkscape:label="s12" />
    <path
       style="opacity:0.449102;fill:#000000;fill-opacity:1;stroke:none;stroke-width:0.31014"
       d="m 27.328629,183.94842 c 0,0 -11.047934,-4.79713 -1.744409,-7.55911 0,0 13.373815,1.74441 27.329103,-0.58147 0,0 41.865858,-2.47124 45.209318,-4.07029 0,0 26.020799,-0.58146 59.019239,-5.37859 0,0 46.95373,-5.23324 53.64063,-7.26839 0,0 18.17094,-1.45367 23.40418,2.47124 0,0 10.61184,3.77957 11.48404,9.73964 0,0 1.88978,5.23323 -18.17094,2.90735 0,0 -11.48405,-2.03514 -26.74764,-1.01757 0,0 -54.80359,2.32589 -59.60071,3.63418 0,0 -27.3291,0.72685 -69.4857,6.54155 0,0 -13.083082,1.30831 -19.333887,3.19808 0,0 -19.188522,5.37859 -25.003224,-2.61662 z"
       id="path13"
       inkscape:label="s13" />
  </g>
  <g
     inkscape:groupmode="layer"
     id="layer2"
     inkscape:label="medians">
    <path
       style="opacity:0.449102;fill:none;fill-opacity:1;stroke:#ff0000;stroke-width:0.31014;stroke-opacity:1"
       d="m 86.114147,28.894633 11.714384,7.334218 c 0,0 -7.02863,7.741675 -7.4361,8.047265 -0.40745,0.305593 -13.038603,18.131818 -13.038603,18.131818 L 61.768616,78.706195 42.923752,95.004456"
       id="path14"
       inkscape:label="m01" />
    <path
       style="opacity:0.449102;fill:none;fill-opacity:1;stroke:#ff0000;stroke-width:0.31014;stroke-opacity:1"
       d="m 87.306125,57.256781 8.666326,1.504928 16.035279,-0.934093 10.01557,-3.476907 5.18941,-1.14167 6.69434,0.726517"
       id="path27"
       inkscape:label="m02" />
    <path
       style="opacity:0.449102;fill:none;fill-opacity:1;stroke:#ff0000;stroke-width:0.31014;stroke-opacity:1"
       d="m 88.457016,70.25147 11.816244,7.130491 0.61118,7.537946"
       id="path16"
       inkscape:label="m03" />
    <path
       style="opacity:0.449102;fill:none;fill-opacity:1;stroke:#ff0000;stroke-width:0.31014;stroke-opacity:1"
       d="m 167.80918,24.412611 10.69574,6.315578 -9.6771,8.14913 -11.10319,18.131815 -14.26098,16.298261 -11.40878,10.797596"
       id="path17"
       inkscape:label="m04" />
    <path
       style="opacity:0.449102;fill:none;fill-opacity:1;stroke:#ff0000;stroke-width:0.31014;stroke-opacity:1"
       d="m 167.70731,48.961868 8.14914,1.629826 12.32555,1.426097 16.1964,-4.380157 10.69573,-2.241012 5.7044,1.324234"
       id="path18"
       inkscape:label="m05" />
    <path
       style="opacity:0.449102;fill:none;fill-opacity:1;stroke:#ff0000;stroke-width:0.31014;stroke-opacity:1"
       d="m 172.39307,67.908595 16.80758,4.787616 1.01864,6.111846"
       id="path19"
       inkscape:label="m06" />
    <path
       style="opacity:0.449102;fill:none;fill-opacity:1;stroke:#ff0000;stroke-width:0.31014;stroke-opacity:1"
       d="m 87.03092,99.588339 16.09454,0.101894 22.41009,-2.954065 25.16046,-2.750326 17.82622,-3.768971 13.14047,1.222368"
       id="path20"
       inkscape:label="m07" />
    <path
       style="opacity:0.449102;fill:none;fill-opacity:1;stroke:#ff0000;stroke-width:0.31014;stroke-opacity:1"
       d="m 96.402421,121.99846 17.520629,0.10189 23.93807,-3.36152 20.47469,-2.5466 9.77896,-1.01865"
       id="path21"
       inkscape:label="m08" />
    <path
       style="opacity:0.449102;fill:none;fill-opacity:1;stroke:#ff0000;stroke-width:0.31014;stroke-opacity:1"
       d="m 132.56418,98.264104 0.40746,13.344206 0.30559,15.48335 -1.93541,14.15911"
       id="path22"
       inkscape:label="m09" />
    <path
       style="opacity:0.449102;fill:none;fill-opacity:1;stroke:#ff0000;stroke-width:0.31014;stroke-opacity:1"
       d="m 72.753119,144.79844 12.47371,3.34118 28.734081,-4.4549 30.07055,-3.11843 31.62977,-2.67294 7.2392,-1.00235 9.35528,2.11608"
       id="path28"
       inkscape:label="m10" />
    <path
       style="opacity:0.449102;fill:none;fill-opacity:1;stroke:#ff0000;stroke-width:0.31014;stroke-opacity:1"
       d="m 99.865811,158.87327 11.205039,3.9727 -4.78761,6.31557 -1.93542,17.52064 -3.6671,14.97403 -8.250999,14.87215 -10.695733,9.77896 -13.75166,8.14913 -15.381482,7.74168"
       id="path24"
       inkscape:label="m11" />
    <path
       style="opacity:0.449102;fill:none;fill-opacity:1;stroke:#ff0000;stroke-width:0.31014;stroke-opacity:1"
       d="m 155.47584,150.1735 11.89985,6.06219 -4.71504,1.12263 1.7962,22.90159 -0.67358,47.37484 -0.8981,18.86014"
       id="path25"
       inkscape:label="m12" />
    <path
       style="opacity:0.449102;fill:none;fill-opacity:1;stroke:#ff0000;stroke-width:0.31014;stroke-opacity:1"
       d="m 26.598289,178.68823 7.858385,4.93956 25.146841,-3.14336 33.903326,-3.5924 28.963769,-2.91884 21.32991,-1.12262 9.20553,-1.7962 30.53546,-2.69431 23.1261,-1.57168 13.47152,-2.46978 19.08467,6.06219"
       id="path26"
       inkscape:label="m13" />
  </g>
</svg>
